<?xml version="1.0" encoding="utf-8"?>
<!-- Generator: Adobe Illustrator 15.1.0, SVG Export Plug-In . SVG Version: 6.00 Build 0)  -->
<!DOCTYPE svg PUBLIC "-//W3C//DTD SVG 1.1//EN" "http://www.w3.org/Graphics/SVG/1.1/DTD/svg11.dtd">
<svg version="1.1" id="圖層_1" xmlns="http://www.w3.org/2000/svg" xmlns:xlink="http://www.w3.org/1999/xlink" x="0px" y="0px"
	 width="127.559px" height="127.56px" viewBox="0 0 127.559 127.56" enable-background="new 0 0 127.559 127.56"
	 xml:space="preserve">
<circle fill="#E8C6DE" cx="63.78" cy="63.78" r="51.75"/>
<g>
	<path fill="#EFEFEF" d="M95.354,64.143c0.924,19.29-13.966,35.68-33.256,36.602c-19.291,0.93-35.679-13.959-36.605-33.246
		c-0.926-19.294,13.962-35.678,33.251-36.605C78.033,29.967,94.425,44.853,95.354,64.143z"/>
	<path fill="#EFEFEF" d="M90.231,74.659c0.584-3.127,1.064-5.326,1.438-6.596c0.574-2.146,1.475-4.367,2.703-6.654
		c0.626-1.038,0.94-1.65,0.929-1.842c-0.401-0.363-0.873-0.324-1.421,0.107c-0.525,0.436-1.071,0.392-1.643-0.124
		c-1.288-0.316-2.508-0.192-3.651,0.38c-3.647,2.241-6.213,5.101-7.704,8.571c-1.219,2.421-1.728,4.816-1.535,7.169
		c0.678,2.74,2.29,3.549,4.849,2.42c0.846-0.502,1.805-1.27,2.869-2.301c0.603-0.461,0.804-0.283,0.594,0.545
		c-0.223,0.963-0.499,1.775-0.816,2.447c-0.266,0.762-0.765,1.461-1.489,2.109c0.674,0.209,1.362,0.361,2.075,0.453
		c0.01-0.01,0.017-0.012,0.025-0.023C88.77,79.407,89.702,77.188,90.231,74.659z M87.353,73.331
		c-1.447,1.617-2.816,2.311-4.101,2.07c-0.802-0.203-1.215-0.592-1.239-1.164c-0.33-2.375,0.51-5.139,2.542-8.278
		c1.523-2.196,3.106-3.415,4.757-3.659c1.048-0.241,1.686,0.028,1.913,0.807c-0.002,0.464-0.209,1.003-0.616,1.62
		c-0.927,2.167-1.627,4.377-2.086,6.625C88.443,71.903,88.05,72.562,87.353,73.331z"/>
</g>
<path fill="#FFFFFF" d="M26.854,72.198c0.084,0.463,0.188,0.91,0.291,1.367c-0.002-0.039,0.005-0.078,0.001-0.117
	C27.104,73.009,26.994,72.595,26.854,72.198z"/>
<path fill="#FFFFFF" d="M16.533,74.472c0.073,0.752,0.304,1.451,0.647,2.072c-0.231-0.695-0.447-1.404-0.648-2.115
	C16.533,74.442,16.531,74.456,16.533,74.472z"/>
<path fill="#595757" d="M110.921,77.87c-0.05,0.434-0.11,0.865-0.172,1.295c0.115-0.408,0.188-0.834,0.172-1.277
	C110.921,77.88,110.921,77.876,110.921,77.87z"/>
<path fill="#B35197" d="M90.532,63.41c0.377-0.637,0.558-1.185,0.537-1.648c-0.264-0.767-0.914-1.006-1.949-0.713
	c-1.638,0.323-3.16,1.616-4.578,3.883c-1.876,3.235-2.584,6.035-2.139,8.39c0.052,0.57,0.481,0.938,1.292,1.105
	c1.296,0.176,2.633-0.58,3.998-2.266c0.658-0.805,1.02-1.479,1.073-2.033C89.118,67.859,89.71,65.618,90.532,63.41z"/>
<path fill="#B35197" d="M106.688,50.714c-2.439-10.033-8.031-18.702-15.644-24.963c-1.585-1.303-3.268-2.499-5.012-3.589
	c-8.387-5.223-18.491-7.84-29.091-6.817C31.303,17.816,12.52,40.604,14.989,66.244c0.273,2.818,0.804,5.552,1.543,8.185
	c0.201,0.711,0.417,1.42,0.648,2.115c0.999,1.797,2.993,2.93,5.169,2.719c2.895-0.277,5.011-2.818,4.796-5.697
	c-0.103-0.457-0.207-0.904-0.291-1.367c-0.18-0.977-0.341-1.965-0.437-2.965c-1.823-18.919,12.033-35.732,30.949-37.554
	c8.575-0.825,16.701,1.595,23.215,6.22c1.873,1.332,3.592,2.87,5.162,4.551c1.533,5.244,4.28,9.917,7.871,13.763l0.025-0.057
	c0.014,0.044,0.028,0.087,0.045,0.126c1.272,0.2,2.589,0.26,3.937,0.129c0.734-0.07,1.453-0.201,2.153-0.37
	c1.956,4.438,3.262,9.258,3.755,14.351c0.161,1.686,0.196,3.354,0.181,5.012h0.027c0,0.137-0.016,0.271-0.003,0.412
	c0.221,2.283,2.251,3.955,4.54,3.738c1.845-0.18,3.266-1.535,3.643-3.25c0.033-0.434,0.07-0.867,0.096-1.305
	c0.121-2.295,0.075-4.623-0.149-6.978C111.259,61.773,109.447,55.938,106.688,50.714z"/>
<path fill="#B35197" d="M88.379,57.166c-6.71,0.319-11.88,6.019-11.557,12.724c0.252,5.234,3.796,9.527,8.529,11.002
	c0.725-0.648,1.224-1.348,1.489-2.109c0.317-0.672,0.594-1.484,0.816-2.447c0.21-0.828,0.009-1.006-0.594-0.545
	c-1.064,1.031-2.023,1.799-2.869,2.301c-2.559,1.129-4.171,0.32-4.849-2.42c-0.192-2.354,0.316-4.748,1.535-7.169
	c1.491-3.471,4.057-6.33,7.704-8.571c1.144-0.572,2.363-0.696,3.651-0.38c0.571,0.516,1.117,0.56,1.643,0.124
	c0.548-0.432,1.02-0.471,1.421-0.107c0.012,0.191-0.303,0.804-0.929,1.842c-1.229,2.287-2.129,4.509-2.703,6.654
	c-0.373,1.27-0.854,3.469-1.438,6.596c-0.529,2.529-1.461,4.748-2.778,6.662c-0.009,0.012-0.016,0.014-0.025,0.023
	c0.692,0.084,1.393,0.127,2.114,0.094c6.704-0.324,11.876-6.02,11.552-12.718C100.77,62.019,95.08,56.844,88.379,57.166z"/>
<g>
	<path fill="#B35197" d="M33.919,53.499c2.352-0.876,5.182-0.794,8.497,0.239c2.859,0.656,5.259,0.458,7.19-0.586
		c0.895-0.098,1.347-0.023,1.359,0.218c0.012,0.245-0.452,0.798-1.388,1.658c-2.103,2.115-3.506,5.187-4.21,9.22
		c-0.129,0.712,0.197,1.014,0.979,0.892c0.786-0.065,1.263-0.049,1.431,0.052c0.009,0.165-0.337,0.601-1.035,1.315
		c-0.315,0.288-0.633,0.483-0.951,0.576c-0.641,0.277-1.023,0.828-1.148,1.648c-0.501,2.555-1.236,4.79-2.205,6.713
		c-2.658,4.156-5.956,5.957-9.899,5.412c-0.879-0.148-1.701-0.625-2.478-1.428c-0.697-0.947-0.532-2.043,0.497-3.291
		c0.469-0.459,0.977-0.863,1.53-1.217c0.799-0.391,1.201-0.52,1.206-0.385c-0.046,0.168-0.273,0.531-0.679,1.096
		c-0.377,0.67-0.471,1.273-0.281,1.807c0.639,0.895,1.64,1.334,3,1.326c2.117-0.074,3.913-1.479,5.388-4.217
		c0.819-1.59,1.419-3.592,1.792-6c0.131-0.659-0.213-1.027-1.032-1.095c-3.227-0.335-5.652-0.164-7.276,0.511l-0.971,0.21
		c-0.11-0.022,0.086-0.479,0.586-1.37c1.173-1.637,2.462-2.298,3.864-1.985c1.515,0.419,2.968,0.633,4.354,0.649
		c0.65-0.031,1.025-0.458,1.122-1.276c0.183-2.402,0.772-4.593,1.767-6.573c0.375-0.67,0.154-1.001-0.663-0.989
		c-1.251-0.047-3.386-0.596-6.4-1.648c-1.401-0.314-2.661-0.197-3.779,0.342c-1.279,0.554-1.876,1.398-1.796,2.535
		c0.252,0.696,0.862,0.939,1.832,0.729c0.645-0.166,0.754,0.17,0.332,1.004c-0.429,0.7-1.031,1.15-1.813,1.353
		c-0.878,0.365-1.778,0.042-2.697-0.974c-0.913-1.477-0.634-3.002,0.841-4.566C31.329,54.829,32.373,54.194,33.919,53.499z"/>
	<path fill="#B35197" d="M51.84,66.386c3.603-4.225,7.064-6.055,10.384-5.477c1.264,0.209,1.859,0.997,1.787,2.364
		c-0.314,1.997-1.971,3.952-4.979,5.868c-1.959,1.182-3.896,1.617-5.814,1.299c-0.72-0.262-1.203-0.119-1.447,0.436
		c-0.388,1.002-0.613,2.002-0.673,3.012c0.011,1.303,0.617,2.32,1.823,3.053c1.167,0.57,2.435,0.646,3.801,0.225
		c1.396-0.393,2.348-0.98,2.854-1.766c0.31-0.396,0.145-0.699-0.492-0.918c-0.417-0.225-0.55-0.406-0.393-0.555l0.954-0.49
		c0.15-0.307,0.411-0.453,0.793-0.445c0.904,0.117,1.286,0.699,1.147,1.736c-0.217,1.18-0.912,2.275-2.09,3.285
		c-2.606,2.326-5.354,2.828-8.251,1.496c-1.199-0.648-1.938-1.637-2.222-2.951C48.078,73.257,49.014,69.864,51.84,66.386z
		 M59.866,63.589c-1.75-0.211-3.649,0.83-5.687,3.133c-0.665,0.849-0.579,1.454,0.255,1.822c2.246,0.379,4.377-0.793,6.396-3.529
		C61.308,64.178,60.985,63.7,59.866,63.589z"/>
	<path fill="#B35197" d="M66.815,60.401c0.375-0.178,0.72-0.144,1.025,0.115c0.597,0.464,0.832,1.16,0.714,2.089
		c-0.058,1.091-0.262,2.187-0.616,3.294l-1.613,7.135c-0.152,0.822,0.117,0.811,0.812-0.041c1.338-2.127,2.731-4.277,4.179-6.44
		c2.16-3.148,4.368-5.365,6.618-6.644c1.229-0.438,1.697-0.08,1.396,1.075c-0.313,0.887-0.881,2.003-1.714,3.349
		c-2.309,4.135-3.704,7.576-4.198,10.318c0.03,0.648,0.106,1.041,0.221,1.17c0.58,0.271,1.164,0.166,1.738-0.324
		c0.79-0.529,1.264-0.795,1.428-0.805c0.114,0.104-0.228,0.621-1.024,1.561c-0.362,0.367-0.76,0.918-1.187,1.648
		c-0.506,0.838-1.075,1.139-1.711,0.896c-1.317-0.807-1.717-2.041-1.201-3.697c0.465-2.766,1.521-5.715,3.172-8.84
		c0.233-0.718-0.053-0.732-0.859-0.043c-2.017,2.169-3.806,4.606-5.361,7.317c-1.069,2.146-2.306,3.768-3.724,4.871
		c-0.934,0.996-1.615,1.166-2.058,0.506c-0.005-0.131,0.071-0.479,0.236-1.031c0.546-2.203,1.163-4.406,1.843-6.617
		c0.834-2.541,1.353-5.002,1.566-7.375c0.2-0.881-0.125-1.408-0.974-1.587c-0.415-0.141-0.603-0.284-0.554-0.423
		c0.078-0.14,0.245-0.256,0.515-0.348C65.983,61.149,66.425,60.775,66.815,60.401z"/>
	<path fill="#B35197" d="M84.721,81.411c-0.553,0.406-1.066,0.486-1.538,0.238c-0.088-0.105-0.116-0.379-0.078-0.814
		c0.032-0.41,0.006-0.68-0.083-0.811c-0.107-0.021-0.537,0.375-1.287,1.201c-0.847,0.506-1.1,1.211-0.755,2.115
		c0.518,0.658,1.108,0.932,1.751,0.816c1.646-0.078,3.211-1.02,4.696-2.813c-0.713-0.092-1.401-0.244-2.075-0.453
		C85.159,81.067,84.954,81.241,84.721,81.411z"/>
</g>
</svg>
