<?xml version="1.0" encoding="utf-8"?>
<!-- Generator: Adobe Illustrator 15.1.0, SVG Export Plug-In . SVG Version: 6.00 Build 0)  -->
<!DOCTYPE svg PUBLIC "-//W3C//DTD SVG 1.1//EN" "http://www.w3.org/Graphics/SVG/1.1/DTD/svg11.dtd">
<svg version="1.1" id="圖層_1" xmlns="http://www.w3.org/2000/svg" xmlns:xlink="http://www.w3.org/1999/xlink" x="0px" y="0px"
	 width="1091.338px" height="70.866px" viewBox="0 0 1091.338 70.866" enable-background="new 0 0 1091.338 70.866"
	 xml:space="preserve">
<g>
	<path fill="#EFEFEF" d="M624.568-68.454c0.924,19.29-13.966,35.681-33.256,36.603c-19.291,0.93-35.678-13.96-36.605-33.246
		c-0.926-19.294,13.962-35.678,33.252-36.605C607.247-102.63,623.639-87.744,624.568-68.454z"/>
	<path fill="#EFEFEF" d="M619.445-57.938c0.584-3.127,1.064-5.326,1.438-6.597c0.574-2.146,1.475-4.367,2.703-6.654
		c0.626-1.038,0.94-1.65,0.929-1.842c-0.401-0.363-0.873-0.324-1.421,0.107c-0.525,0.436-1.071,0.392-1.643-0.124
		c-1.288-0.316-2.508-0.192-3.651,0.38c-3.647,2.241-6.213,5.101-7.704,8.571c-1.219,2.422-1.728,4.815-1.535,7.169
		c0.678,2.741,2.29,3.55,4.849,2.421c0.846-0.503,1.805-1.27,2.869-2.301c0.603-0.462,0.804-0.284,0.594,0.544
		c-0.223,0.963-0.499,1.775-0.816,2.447c-0.266,0.762-0.765,1.461-1.489,2.11c0.674,0.208,1.362,0.361,2.075,0.453
		c0.01-0.01,0.017-0.013,0.025-0.024C617.984-53.189,618.916-55.409,619.445-57.938z M616.567-59.267
		c-1.447,1.618-2.816,2.311-4.101,2.071c-0.802-0.204-1.215-0.592-1.239-1.164c-0.33-2.376,0.51-5.139,2.542-8.278
		c1.523-2.196,3.106-3.415,4.757-3.659c1.048-0.241,1.686,0.028,1.913,0.807c-0.002,0.464-0.209,1.003-0.616,1.62
		c-0.927,2.167-1.627,4.377-2.086,6.625C617.657-60.694,617.264-60.036,616.567-59.267z"/>
</g>
<path fill="#FFFFFF" d="M556.068-60.398c0.083,0.462,0.188,0.909,0.291,1.366c-0.002-0.039,0.004-0.077,0.001-0.116
	C556.318-59.588,556.208-60.003,556.068-60.398z"/>
<path fill="#FFFFFF" d="M545.747-58.126c0.073,0.752,0.304,1.452,0.647,2.072c-0.231-0.694-0.447-1.403-0.648-2.115
	C545.747-58.154,545.745-58.141,545.747-58.126z"/>
<path fill="#595757" d="M707.693-39.728c-0.05,0.435-0.11,0.865-0.172,1.295c0.115-0.408,0.188-0.834,0.172-1.276
	C707.693-39.718,707.693-39.721,707.693-39.728z"/>
<path fill="#B68BAC" d="M619.746-69.188c0.377-0.637,0.558-1.185,0.537-1.648c-0.264-0.767-0.914-1.006-1.949-0.713
	c-1.638,0.323-3.16,1.616-4.578,3.883c-1.876,3.235-2.584,6.034-2.139,8.391c0.052,0.569,0.481,0.938,1.292,1.104
	c1.296,0.176,2.633-0.579,3.998-2.266c0.658-0.804,1.02-1.479,1.073-2.033C618.332-64.738,618.924-66.979,619.746-69.188z"/>
<path fill="#B68BAC" d="M635.902-81.883c-2.439-10.033-8.031-18.702-15.644-24.963c-1.585-1.303-3.268-2.499-5.012-3.589
	c-8.387-5.223-18.491-7.84-29.091-6.817c-25.639,2.471-44.421,25.259-41.953,50.898c0.273,2.818,0.803,5.552,1.542,8.185
	c0.201,0.712,0.417,1.421,0.648,2.115c1,1.798,2.994,2.931,5.169,2.72c2.894-0.278,5.01-2.818,4.796-5.698
	c-0.103-0.457-0.208-0.904-0.291-1.366c-0.18-0.978-0.341-1.965-0.437-2.966c-1.823-18.919,12.034-35.731,30.949-37.554
	c8.575-0.825,16.701,1.595,23.215,6.22c1.873,1.332,3.592,2.87,5.162,4.551c1.533,5.244,4.28,9.917,7.871,13.763l0.025-0.057
	c0.014,0.044,0.028,0.087,0.045,0.126c1.272,0.2,2.589,0.26,3.937,0.129c0.734-0.07,1.453-0.201,2.153-0.37
	c1.956,4.438,3.262,9.258,3.755,14.351c0.161,1.686,0.196,3.354,0.181,5.013h0.027c0,0.136-0.016,0.271-0.003,0.411
	c0.221,2.284,2.251,3.956,4.54,3.738c1.845-0.18,3.266-1.535,3.643-3.25c0.033-0.434,0.07-0.866,0.096-1.305
	c0.121-2.294,0.075-4.622-0.149-6.978C640.473-70.824,638.661-76.659,635.902-81.883z"/>
<path fill="#B68BAC" d="M617.593-75.432c-6.71,0.319-11.88,6.019-11.557,12.724c0.252,5.235,3.796,9.527,8.529,11.003
	c0.725-0.649,1.224-1.349,1.489-2.11c0.317-0.672,0.594-1.484,0.816-2.447c0.21-0.828,0.009-1.006-0.594-0.544
	c-1.064,1.031-2.023,1.798-2.869,2.301c-2.559,1.129-4.171,0.32-4.849-2.421c-0.192-2.354,0.316-4.747,1.535-7.169
	c1.491-3.471,4.057-6.33,7.704-8.571c1.144-0.572,2.363-0.696,3.651-0.38c0.571,0.516,1.117,0.56,1.643,0.124
	c0.548-0.432,1.02-0.471,1.421-0.107c0.012,0.191-0.303,0.804-0.929,1.842c-1.229,2.287-2.129,4.509-2.703,6.654
	c-0.373,1.271-0.854,3.47-1.438,6.597c-0.529,2.528-1.461,4.748-2.778,6.661c-0.009,0.012-0.016,0.015-0.025,0.024
	c0.692,0.084,1.393,0.126,2.114,0.094c6.704-0.325,11.876-6.021,11.552-12.719C629.984-70.578,624.293-75.753,617.593-75.432z"/>
<g>
	<path fill="#B35197" d="M563.133-79.099c2.352-0.876,5.182-0.794,8.498,0.239c2.859,0.656,5.259,0.458,7.191-0.586
		c0.895-0.098,1.346-0.023,1.358,0.218c0.012,0.245-0.452,0.798-1.388,1.658c-2.102,2.115-3.506,5.187-4.209,9.22
		c-0.129,0.712,0.197,1.014,0.979,0.892c0.786-0.065,1.264-0.049,1.432,0.052c0.008,0.165-0.338,0.601-1.036,1.315
		c-0.315,0.288-0.633,0.483-0.951,0.576c-0.641,0.277-1.023,0.828-1.148,1.648c-0.501,2.556-1.237,4.79-2.205,6.714
		c-2.659,4.155-5.957,5.956-9.899,5.411c-0.879-0.147-1.701-0.625-2.478-1.428c-0.697-0.946-0.532-2.043,0.497-3.29
		c0.469-0.46,0.977-0.863,1.531-1.218c0.798-0.39,1.201-0.519,1.206-0.384c-0.046,0.168-0.273,0.531-0.679,1.095
		c-0.377,0.67-0.471,1.273-0.281,1.808c0.639,0.894,1.64,1.334,3,1.326c2.117-0.075,3.913-1.479,5.388-4.218
		c0.819-1.589,1.419-3.592,1.792-5.999c0.131-0.659-0.213-1.027-1.032-1.095c-3.226-0.335-5.652-0.164-7.276,0.511l-0.97,0.21
		c-0.11-0.022,0.085-0.479,0.586-1.37c1.173-1.637,2.461-2.298,3.864-1.985c1.514,0.419,2.967,0.633,4.354,0.649
		c0.65-0.031,1.026-0.458,1.122-1.276c0.183-2.402,0.773-4.593,1.767-6.573c0.375-0.67,0.155-1.001-0.663-0.989
		c-1.251-0.047-3.386-0.596-6.4-1.648c-1.402-0.314-2.662-0.197-3.779,0.342c-1.28,0.554-1.876,1.398-1.796,2.535
		c0.252,0.696,0.863,0.939,1.832,0.729c0.645-0.166,0.754,0.17,0.333,1.004c-0.429,0.7-1.032,1.15-1.813,1.353
		c-0.877,0.365-1.778,0.042-2.697-0.974c-0.913-1.477-0.633-3.002,0.841-4.566C560.543-77.769,561.587-78.403,563.133-79.099z"/>
	<path fill="#B35197" d="M581.054-66.211c3.604-4.225,7.064-6.055,10.384-5.477c1.264,0.209,1.859,0.997,1.787,2.364
		c-0.314,1.997-1.97,3.952-4.979,5.867c-1.959,1.182-3.895,1.618-5.814,1.299c-0.72-0.262-1.203-0.119-1.447,0.437
		c-0.387,1.001-0.613,2.002-0.672,3.012c0.01,1.302,0.616,2.319,1.822,3.052c1.168,0.57,2.436,0.646,3.801,0.225
		c1.396-0.392,2.348-0.979,2.854-1.765c0.31-0.397,0.145-0.7-0.492-0.918c-0.417-0.225-0.55-0.407-0.393-0.555l0.955-0.49
		c0.149-0.308,0.41-0.453,0.792-0.446c0.905,0.117,1.286,0.699,1.147,1.737c-0.217,1.18-0.912,2.274-2.09,3.285
		c-2.606,2.325-5.354,2.827-8.251,1.495c-1.198-0.648-1.938-1.636-2.222-2.951C577.292-59.341,578.228-62.733,581.054-66.211z
		 M589.08-69.008c-1.75-0.211-3.648,0.83-5.686,3.133c-0.666,0.849-0.58,1.454,0.254,1.822c2.246,0.379,4.377-0.793,6.396-3.529
		C590.522-68.419,590.199-68.897,589.08-69.008z"/>
	<path fill="#B35197" d="M596.029-72.196c0.375-0.178,0.72-0.144,1.025,0.115c0.597,0.464,0.832,1.16,0.714,2.089
		c-0.058,1.091-0.262,2.187-0.616,3.294l-1.613,7.135c-0.152,0.822,0.117,0.811,0.812-0.041c1.338-2.127,2.731-4.276,4.179-6.439
		c2.16-3.148,4.368-5.365,6.618-6.644c1.229-0.438,1.697-0.08,1.396,1.075c-0.313,0.887-0.881,2.003-1.714,3.349
		c-2.309,4.135-3.704,7.575-4.198,10.317c0.03,0.649,0.106,1.041,0.221,1.17c0.58,0.271,1.164,0.166,1.738-0.323
		c0.79-0.529,1.264-0.795,1.428-0.805c0.114,0.104-0.228,0.621-1.024,1.56c-0.362,0.368-0.76,0.919-1.187,1.648
		c-0.506,0.839-1.075,1.139-1.711,0.897c-1.317-0.807-1.717-2.042-1.201-3.697c0.465-2.767,1.521-5.716,3.172-8.841
		c0.233-0.718-0.053-0.732-0.859-0.043c-2.017,2.169-3.806,4.605-5.361,7.317c-1.069,2.146-2.306,3.768-3.724,4.87
		c-0.934,0.996-1.615,1.167-2.057,0.506c-0.006-0.131,0.07-0.479,0.235-1.031c0.546-2.203,1.163-4.405,1.843-6.616
		c0.834-2.541,1.353-5.003,1.566-7.376c0.2-0.881-0.125-1.408-0.974-1.587c-0.415-0.141-0.603-0.284-0.554-0.423
		c0.078-0.14,0.245-0.256,0.515-0.348C595.197-71.448,595.639-71.822,596.029-72.196z"/>
	<path fill="#B35197" d="M613.935-51.187c-0.553,0.407-1.066,0.487-1.538,0.238c-0.088-0.105-0.116-0.378-0.078-0.813
		c0.032-0.41,0.006-0.681-0.083-0.812c-0.107-0.021-0.537,0.376-1.287,1.201c-0.847,0.507-1.1,1.212-0.755,2.116
		c0.518,0.657,1.108,0.931,1.751,0.816c1.646-0.078,3.211-1.02,4.696-2.813c-0.713-0.092-1.401-0.245-2.075-0.453
		C614.373-51.529,614.167-51.356,613.935-51.187z"/>
</g>
<g>
	<g>
		<path fill="#EFEFEF" d="M578.204,40.521c0.76,15.875-11.494,29.364-27.369,30.124c-15.877,0.765-29.364-11.488-30.126-27.361
			c-0.762-15.879,11.49-29.363,27.365-30.127C563.948,12.394,577.439,24.646,578.204,40.521z"/>
		<path fill="#EFEFEF" d="M573.988,49.176c0.48-2.574,0.876-4.384,1.183-5.429c0.473-1.767,1.214-3.595,2.225-5.477
			c0.516-0.854,0.774-1.359,0.765-1.516c-0.331-0.299-0.719-0.267-1.169,0.088c-0.433,0.359-0.882,0.322-1.352-0.102
			c-1.06-0.261-2.063-0.158-3.005,0.313c-3.002,1.845-5.113,4.198-6.341,7.054c-1.003,1.993-1.421,3.963-1.263,5.9
			c0.558,2.255,1.885,2.921,3.991,1.992c0.696-0.414,1.485-1.045,2.361-1.895c0.496-0.379,0.661-0.232,0.488,0.449
			c-0.183,0.793-0.411,1.461-0.672,2.014c-0.219,0.627-0.629,1.203-1.226,1.736c0.555,0.172,1.122,0.297,1.708,0.373
			c0.008-0.008,0.014-0.01,0.021-0.02C572.785,53.083,573.552,51.257,573.988,49.176z M571.619,48.083
			c-1.191,1.331-2.318,1.901-3.375,1.704c-0.66-0.167-1-0.487-1.02-0.958c-0.272-1.954,0.419-4.229,2.092-6.813
			c1.253-1.807,2.557-2.811,3.915-3.012c0.863-0.198,1.387,0.023,1.575,0.664c-0.001,0.381-0.172,0.825-0.507,1.333
			c-0.763,1.783-1.339,3.603-1.717,5.453C572.516,46.908,572.193,47.45,571.619,48.083z"/>
	</g>
	<path fill="#FFFFFF" d="M521.828,47.151c0.069,0.381,0.155,0.749,0.239,1.125c-0.001-0.032,0.004-0.064,0.001-0.096
		C522.034,47.818,521.943,47.477,521.828,47.151z"/>
	<path fill="#FFFFFF" d="M513.334,49.022c0.06,0.618,0.25,1.193,0.533,1.705c-0.191-0.572-0.369-1.155-0.534-1.741
		C513.334,48.998,513.332,49.008,513.334,49.022z"/>
	<path fill="#595757" d="M591.016,51.818c-0.041,0.357-0.091,0.713-0.142,1.066c0.095-0.336,0.155-0.687,0.142-1.052
		C591.016,51.827,591.016,51.823,591.016,51.818z"/>
	<path fill="#B35197" d="M574.235,39.917c0.31-0.524,0.458-0.975,0.441-1.356c-0.217-0.631-0.752-0.828-1.604-0.587
		c-1.348,0.266-2.601,1.33-3.768,3.195c-1.544,2.663-2.126,4.967-1.76,6.905c0.042,0.469,0.396,0.771,1.063,0.91
		c1.066,0.145,2.167-0.478,3.29-1.864c0.542-0.662,0.839-1.217,0.883-1.675C573.072,43.579,573.56,41.734,574.235,39.917z"/>
	<path fill="#B35197" d="M587.532,29.469c-2.007-8.258-6.61-15.392-12.875-20.544c-1.304-1.072-2.689-2.057-4.125-2.954
		c-6.902-4.298-15.218-6.452-23.941-5.611c-21.101,2.033-36.56,20.788-34.528,41.889c0.225,2.319,0.662,4.569,1.27,6.736
		c0.165,0.586,0.343,1.169,0.534,1.741c0.822,1.479,2.463,2.411,4.254,2.237c2.382-0.229,4.124-2.319,3.947-4.688
		c-0.084-0.376-0.17-0.744-0.239-1.125c-0.148-0.805-0.28-1.617-0.359-2.44c-1.5-15.571,9.903-29.407,25.471-30.907
		c7.058-0.679,13.745,1.313,19.106,5.119c1.541,1.096,2.956,2.362,4.248,3.745c1.262,4.316,3.522,8.161,6.478,11.327l0.021-0.047
		c0.011,0.036,0.023,0.072,0.037,0.104c1.048,0.165,2.131,0.214,3.24,0.106c0.604-0.058,1.195-0.166,1.772-0.305
		c1.61,3.653,2.685,7.62,3.09,11.811c0.132,1.387,0.162,2.76,0.148,4.124h0.022c0,0.113-0.013,0.225-0.002,0.34
		c0.182,1.88,1.853,3.255,3.737,3.076c1.518-0.147,2.688-1.264,2.998-2.675c0.027-0.355,0.058-0.713,0.079-1.073
		c0.1-1.889,0.062-3.805-0.123-5.743C591.293,38.571,589.802,33.768,587.532,29.469z"/>
	<path fill="#B35197" d="M572.464,34.779c-5.522,0.263-9.777,4.953-9.511,10.472c0.207,4.308,3.124,7.841,7.02,9.055
		c0.597-0.533,1.007-1.109,1.226-1.736c0.261-0.553,0.489-1.221,0.672-2.014c0.173-0.682,0.008-0.828-0.488-0.449
		c-0.876,0.85-1.666,1.48-2.361,1.895c-2.106,0.929-3.433,0.263-3.991-1.992c-0.158-1.938,0.26-3.907,1.263-5.9
		c1.228-2.856,3.339-5.209,6.341-7.054c0.941-0.471,1.945-0.573,3.005-0.313c0.47,0.424,0.919,0.461,1.352,0.102
		c0.451-0.355,0.839-0.387,1.169-0.088c0.01,0.157-0.249,0.662-0.765,1.516c-1.011,1.882-1.752,3.71-2.225,5.477
		c-0.307,1.045-0.702,2.854-1.183,5.429c-0.436,2.081-1.203,3.907-2.287,5.482c-0.007,0.01-0.013,0.012-0.021,0.02
		c0.57,0.069,1.146,0.104,1.74,0.077c5.517-0.268,9.774-4.954,9.507-10.468C582.661,38.773,577.978,34.514,572.464,34.779z"/>
	<g>
		<path fill="#B35197" d="M527.643,31.761c1.935-0.721,4.265-0.654,6.993,0.197c2.354,0.54,4.329,0.377,5.918-0.482
			c0.736-0.08,1.108-0.02,1.118,0.179c0.01,0.202-0.372,0.657-1.142,1.365c-1.731,1.741-2.886,4.269-3.465,7.588
			c-0.106,0.586,0.162,0.835,0.806,0.733c0.647-0.053,1.039-0.04,1.177,0.043c0.007,0.136-0.277,0.495-0.852,1.083
			c-0.26,0.237-0.521,0.397-0.783,0.475c-0.527,0.228-0.842,0.681-0.945,1.356c-0.413,2.103-1.018,3.941-1.815,5.525
			c-2.188,3.42-4.901,4.901-8.147,4.454c-0.723-0.122-1.4-0.515-2.039-1.176c-0.574-0.779-0.438-1.681,0.409-2.708
			c0.386-0.378,0.804-0.711,1.259-1.001c0.657-0.322,0.988-0.429,0.993-0.317c-0.038,0.138-0.225,0.437-0.559,0.902
			c-0.31,0.55-0.387,1.048-0.231,1.486c0.526,0.736,1.35,1.098,2.469,1.092c1.743-0.062,3.221-1.217,4.435-3.472
			c0.674-1.308,1.167-2.955,1.475-4.937c0.108-0.542-0.175-0.846-0.849-0.901c-2.656-0.275-4.652-0.135-5.989,0.421l-0.799,0.173
			c-0.091-0.02,0.07-0.395,0.482-1.129c0.965-1.346,2.026-1.89,3.18-1.634c1.247,0.345,2.442,0.521,3.584,0.534
			c0.536-0.025,0.844-0.376,0.923-1.049c0.15-1.978,0.636-3.78,1.454-5.41c0.309-0.551,0.127-0.824-0.546-0.814
			c-1.029-0.039-2.786-0.49-5.267-1.357c-1.154-0.258-2.19-0.162-3.111,0.281c-1.053,0.456-1.544,1.151-1.478,2.086
			c0.207,0.573,0.709,0.773,1.507,0.6c0.53-0.137,0.621,0.14,0.273,0.826c-0.353,0.577-0.848,0.947-1.491,1.113
			c-0.723,0.301-1.463,0.035-2.22-0.801c-0.751-1.215-0.521-2.471,0.692-3.758C525.511,32.855,526.37,32.333,527.643,31.761z"/>
		<path fill="#B35197" d="M542.392,42.367c2.965-3.477,5.814-4.982,8.546-4.507c1.04,0.172,1.53,0.821,1.471,1.946
			c-0.259,1.644-1.622,3.252-4.098,4.829c-1.612,0.973-3.206,1.331-4.785,1.069c-0.592-0.216-0.991-0.099-1.191,0.359
			c-0.319,0.824-0.505,1.647-0.554,2.478c0.009,1.072,0.508,1.909,1.5,2.513c0.96,0.47,2.004,0.532,3.128,0.185
			c1.149-0.322,1.932-0.807,2.349-1.453c0.255-0.326,0.119-0.575-0.405-0.755c-0.344-0.185-0.453-0.335-0.323-0.457l0.785-0.403
			c0.124-0.252,0.338-0.373,0.653-0.366c0.744,0.097,1.059,0.575,0.944,1.43c-0.178,0.971-0.75,1.872-1.72,2.702
			c-2.145,1.916-4.407,2.328-6.791,1.232c-0.987-0.533-1.595-1.348-1.829-2.43C539.295,48.022,540.066,45.23,542.392,42.367z
			 M548.997,40.065c-1.441-0.173-3.004,0.684-4.68,2.579c-0.547,0.698-0.477,1.197,0.209,1.5c1.849,0.312,3.603-0.653,5.264-2.905
			C550.184,40.55,549.918,40.156,548.997,40.065z"/>
		<path fill="#B35197" d="M554.716,37.441c0.309-0.146,0.593-0.118,0.844,0.095c0.491,0.382,0.685,0.955,0.587,1.719
			c-0.047,0.897-0.215,1.8-0.507,2.71l-1.328,5.873c-0.125,0.677,0.097,0.667,0.668-0.034c1.101-1.75,2.248-3.52,3.439-5.299
			c1.778-2.592,3.595-4.417,5.447-5.468c1.012-0.36,1.397-0.066,1.15,0.885c-0.257,0.729-0.725,1.648-1.411,2.755
			c-1.9,3.403-3.048,6.235-3.456,8.492c0.025,0.534,0.088,0.856,0.182,0.963c0.478,0.224,0.958,0.137,1.431-0.268
			c0.65-0.435,1.04-0.653,1.175-0.662c0.094,0.086-0.188,0.512-0.843,1.285c-0.298,0.302-0.625,0.755-0.977,1.356
			c-0.417,0.689-0.885,0.938-1.408,0.738c-1.084-0.664-1.413-1.68-0.989-3.043c0.383-2.276,1.252-4.704,2.611-7.275
			c0.192-0.591-0.043-0.604-0.708-0.036c-1.66,1.785-3.132,3.791-4.412,6.022c-0.88,1.767-1.897,3.1-3.064,4.008
			c-0.769,0.82-1.33,0.961-1.694,0.417c-0.004-0.108,0.059-0.394,0.195-0.849c0.449-1.813,0.957-3.627,1.517-5.445
			c0.687-2.092,1.113-4.117,1.289-6.07c0.165-0.725-0.103-1.159-0.801-1.307c-0.342-0.116-0.496-0.234-0.456-0.348
			c0.064-0.115,0.202-0.21,0.423-0.286C554.031,38.057,554.396,37.75,554.716,37.441z"/>
		<path fill="#B35197" d="M569.453,54.733c-0.455,0.334-0.878,0.4-1.266,0.196c-0.072-0.087-0.096-0.313-0.064-0.671
			c0.026-0.337,0.004-0.56-0.068-0.667c-0.088-0.018-0.442,0.309-1.06,0.989c-0.697,0.416-0.905,0.996-0.621,1.74
			c0.426,0.542,0.912,0.768,1.441,0.672c1.355-0.064,2.643-0.839,3.865-2.314c-0.586-0.076-1.153-0.201-1.708-0.373
			C569.813,54.45,569.645,54.593,569.453,54.733z"/>
	</g>
	<g>
		<path fill="#B35197" d="M527.25,64.636c0.067,0,0.1,0.04,0.1,0.12c0,0.033-0.04,0.072-0.12,0.118
			c-0.329,0.211-0.834,0.5-1.516,0.868c-0.369,0.203-0.806,0.463-1.312,0.778c-0.064,0.06-0.121,0.089-0.168,0.089
			c-0.167,0-0.375-0.101-0.625-0.303c-0.197-0.18-0.295-0.322-0.295-0.427c0-0.025,0.031-0.04,0.095-0.047
			c0.174-0.012,0.344-0.046,0.51-0.102c0.656-0.18,1.616-0.498,2.881-0.956C527.053,64.683,527.203,64.636,527.25,64.636z
			 M527.045,60.145c0.138,0.06,0.207,0.134,0.207,0.224c0,0.059-0.059,0.104-0.177,0.137c-0.136,0.059-0.439,0.134-0.909,0.225
			c-0.711,0.125-1.175,0.188-1.392,0.188c-0.307,0-0.521-0.035-0.641-0.104c-0.12-0.084-0.18-0.157-0.18-0.219
			c0-0.048,0.087-0.076,0.261-0.085c0.41-0.049,0.859-0.129,1.35-0.243c0.341-0.072,0.617-0.149,0.828-0.23
			c0.074-0.032,0.124-0.049,0.149-0.049C526.671,59.988,526.839,60.041,527.045,60.145z M526.825,62.63
			c0.219,0.078,0.329,0.145,0.329,0.2c0,0.089-0.133,0.161-0.397,0.216c-0.203,0.03-0.374,0.061-0.513,0.09
			c-0.125,0.03-0.443,0.105-0.957,0.225c-0.28,0.061-0.482,0.091-0.606,0.091c-0.169,0-0.31-0.018-0.423-0.051
			c-0.169-0.057-0.254-0.119-0.254-0.187c0-0.102,0.133-0.158,0.398-0.169c0.575-0.11,1.134-0.255,1.677-0.432
			c0.16-0.044,0.248-0.066,0.264-0.066C526.422,62.547,526.583,62.576,526.825,62.63z M525.879,60.7
			c0.177,0.09,0.265,0.188,0.265,0.297c0,0.071-0.013,0.148-0.04,0.229c-0.035,0.162-0.053,0.297-0.053,0.404l-0.12,3.794h-0.637
			l-0.083-4.07c-0.009-0.125-0.052-0.259-0.13-0.401c-0.061-0.071-0.091-0.125-0.091-0.161c0-0.16,0.083-0.24,0.252-0.24
			C525.411,60.551,525.623,60.6,525.879,60.7z M527.601,63.16c0.114,0,0.284,0.046,0.512,0.136c0.196,0.07,0.294,0.156,0.294,0.257
			c0,0.04-0.015,0.09-0.046,0.149c-0.051,0.1-0.077,0.279-0.077,0.539c0,0.604-0.051,1.147-0.152,1.633
			c-0.087,0.471-0.218,0.897-0.392,1.28c-0.16,0.353-0.356,0.64-0.588,0.86c-0.203,0.177-0.334,0.265-0.392,0.265
			c-0.046,0-0.069-0.018-0.069-0.054c0-0.015,0.019-0.052,0.057-0.11c0.227-0.354,0.407-0.724,0.54-1.107
			c0.151-0.413,0.255-0.87,0.312-1.372c0.057-0.457,0.085-0.922,0.085-1.395c0-0.316-0.038-0.539-0.112-0.666
			c-0.074-0.095-0.111-0.182-0.111-0.261C527.461,63.211,527.507,63.16,527.601,63.16z M530.035,58.211
			c0.322,0.243,0.483,0.435,0.483,0.572c0,0.038-0.023,0.092-0.069,0.16c-0.061,0.114-0.138,0.252-0.229,0.416
			c-0.176,0.334-0.436,0.769-0.779,1.305c-0.427,0.604-0.874,1.086-1.34,1.445c-0.489,0.372-0.821,0.558-0.997,0.558
			c-0.067,0-0.102-0.02-0.102-0.06c0-0.019,0.026-0.051,0.078-0.096c0.395-0.327,0.846-0.859,1.352-1.597
			c0.387-0.539,0.7-1.101,0.938-1.685c0.104-0.23,0.156-0.51,0.156-0.837c0-0.203,0.062-0.305,0.186-0.305
			C529.779,58.089,529.886,58.13,530.035,58.211z M529.872,63.185c0.195,0.128,0.292,0.232,0.292,0.314
			c0,0.063-0.028,0.141-0.083,0.231c-0.093,0.219-0.14,0.618-0.14,1.199c0,0.565,0.009,0.987,0.027,1.265
			c0.018,0.21,0.027,0.443,0.027,0.698c0,0.463-0.063,0.821-0.188,1.076c-0.149,0.271-0.279,0.408-0.389,0.408l-0.292-1.054
			c0.058,0,0.105-0.041,0.144-0.122c0.058-0.183,0.086-0.711,0.086-1.585c0-0.462-0.014-1.067-0.042-1.814
			c-0.009-0.138-0.028-0.222-0.055-0.251c-0.046-0.039-0.106-0.06-0.18-0.06c-0.031,0-0.119,0.01-0.264,0.028
			c-0.237,0.046-0.405,0.083-0.504,0.11c-0.046,0.019-0.077,0.027-0.092,0.027c-0.072,0-0.157-0.037-0.256-0.111
			c-0.081-0.074-0.121-0.134-0.121-0.181c0-0.026,0.025-0.043,0.074-0.05c0.23-0.026,0.501-0.076,0.813-0.148
			c0.214-0.066,0.382-0.126,0.506-0.18c0.082-0.033,0.127-0.05,0.136-0.05C529.436,62.938,529.603,63.021,529.872,63.185z
			 M529.296,64.37c0.179,0.063,0.269,0.117,0.269,0.163c0,0.072-0.109,0.132-0.326,0.177c-0.073,0.011-0.134,0.021-0.184,0.032
			c-0.045,0.011-0.159,0.037-0.343,0.079c-0.101,0.021-0.173,0.032-0.218,0.032c-0.139,0-0.254-0.015-0.346-0.042
			c-0.138-0.046-0.208-0.097-0.208-0.152c0-0.083,0.108-0.129,0.325-0.139c0.188-0.049,0.371-0.111,0.548-0.189
			c0.052-0.02,0.081-0.029,0.086-0.029C528.967,64.301,529.099,64.324,529.296,64.37z M529.346,65.55
			c0.179,0.063,0.269,0.118,0.269,0.164c0,0.072-0.108,0.131-0.325,0.177c-0.078,0.011-0.143,0.021-0.196,0.031
			c-0.048,0.011-0.17,0.037-0.366,0.08c-0.107,0.021-0.185,0.031-0.232,0.031c-0.139,0-0.254-0.014-0.346-0.041
			c-0.138-0.047-0.208-0.098-0.208-0.152c0-0.083,0.108-0.13,0.325-0.139c0.203-0.049,0.399-0.112,0.591-0.19
			c0.056-0.019,0.087-0.028,0.093-0.028C529.016,65.483,529.148,65.505,529.346,65.55z M528.55,67.298
			c0.344,0.017,0.536,0.025,0.575,0.025l0.292,1.054c-0.05,0-0.108-0.043-0.175-0.129c-0.25-0.286-0.492-0.539-0.725-0.761
			c-0.092-0.071-0.138-0.118-0.138-0.14c0-0.036,0.018-0.054,0.054-0.054C528.449,67.294,528.488,67.295,528.55,67.298z
			 M531.328,61.375c0.138,0.06,0.207,0.134,0.207,0.224c0,0.048-0.042,0.085-0.124,0.112c-0.095,0.048-0.308,0.109-0.638,0.185
			c-0.499,0.102-0.825,0.153-0.977,0.153c-0.308,0-0.521-0.034-0.641-0.104c-0.12-0.084-0.18-0.157-0.18-0.218
			c0-0.041,0.062-0.064,0.186-0.071c0.292-0.041,0.614-0.108,0.964-0.204c0.244-0.062,0.441-0.126,0.592-0.193
			c0.053-0.027,0.088-0.041,0.106-0.041C530.953,61.218,531.121,61.271,531.328,61.375z M530.959,59.512
			c0.828,0.807,1.443,1.335,1.846,1.584c0.414,0.25,1.078,0.551,1.992,0.902c0.122,0.044,0.183,0.088,0.183,0.132
			c0,0.071-0.06,0.124-0.178,0.16c-0.679,0.186-1.15,0.278-1.412,0.278c-0.167,0-0.339-0.056-0.518-0.168
			c-0.179-0.126-0.703-0.729-1.572-1.807c-0.262-0.336-0.512-0.623-0.75-0.861c-0.227-0.225-0.447-0.385-0.661-0.483
			c-0.083-0.014-0.125-0.056-0.125-0.126c0-0.107,0.088-0.161,0.265-0.161C530.234,58.962,530.545,59.145,530.959,59.512z
			 M531.134,63.585c0.155,0.063,0.238,0.136,0.247,0.217l-0.11,2.079c0,0.092-0.032,0.2-0.095,0.328
			c-0.036,0.1-0.085,0.149-0.148,0.149c-0.054,0-0.117-0.074-0.188-0.223c-0.063-0.111-0.095-0.199-0.095-0.265
			c0-0.028,0.008-0.088,0.023-0.181c0.008-0.149,0.012-0.288,0.012-0.418c0-0.325-0.009-0.656-0.026-0.993
			c-0.009-0.178-0.028-0.35-0.058-0.515c-0.009-0.041-0.013-0.08-0.013-0.115c0-0.097,0.036-0.146,0.109-0.146
			C530.837,63.504,530.952,63.532,531.134,63.585z M532.43,62.716c0,0,0.113,0.065,0.34,0.195c0.219,0.138,0.328,0.26,0.328,0.365
			c0,0.106-0.027,0.26-0.08,0.459c-0.054,0.281-0.08,0.628-0.08,1.041v0.931c0,0.538,0.006,0.96,0.02,1.266
			c0.02,0.245,0.03,0.521,0.03,0.826c0,0.3-0.081,0.556-0.243,0.767c-0.163,0.202-0.304,0.304-0.423,0.304
			c-0.118,0-0.221-0.077-0.309-0.23c-0.226-0.314-0.54-0.681-0.942-1.098c0-0.033,0.023-0.05,0.07-0.05
			c0.052,0,0.177,0.029,0.375,0.089c0.261,0.06,0.433,0.089,0.516,0.089c0.105,0,0.172-0.109,0.201-0.328
			c0.057-0.314,0.086-0.983,0.086-2.005c0-0.451-0.017-0.931-0.048-1.437c-0.024-0.303-0.073-0.526-0.145-0.671
			c-0.048-0.158-0.081-0.263-0.097-0.313c0-0.133,0.061-0.2,0.182-0.2C532.357,62.716,532.43,62.716,532.43,62.716z"/>
		<path fill="#B35197" d="M542.341,64.686c0.072,0,0.108,0.043,0.108,0.129c0,0.036-0.036,0.078-0.108,0.129
			c-0.295,0.229-0.75,0.543-1.362,0.942c-0.332,0.222-0.724,0.504-1.178,0.847c-0.058,0.064-0.108,0.097-0.151,0.097
			c-0.179,0-0.403-0.108-0.672-0.326c-0.212-0.193-0.318-0.347-0.318-0.46c0-0.026,0.03-0.043,0.089-0.051
			c0.163-0.013,0.322-0.05,0.477-0.111c0.614-0.195,1.512-0.544,2.695-1.044C542.156,64.737,542.296,64.686,542.341,64.686z
			 M542.42,59.897c0.15,0.065,0.225,0.147,0.225,0.245c0,0.058-0.064,0.103-0.192,0.136c-0.148,0.058-0.478,0.132-0.99,0.223
			c-0.775,0.124-1.28,0.186-1.516,0.186c-0.335,0-0.568-0.037-0.699-0.112c-0.13-0.092-0.196-0.171-0.196-0.238
			c0-0.049,0.095-0.077,0.284-0.085c0.446-0.049,0.936-0.13,1.47-0.244c0.372-0.073,0.672-0.15,0.902-0.231
			c0.081-0.032,0.135-0.049,0.162-0.049C542.012,59.726,542.195,59.784,542.42,59.897z M542.09,62.623
			c0.239,0.085,0.358,0.158,0.358,0.218c0,0.098-0.145,0.176-0.434,0.236c-0.197,0.021-0.364,0.043-0.501,0.064
			c-0.122,0.021-0.433,0.075-0.934,0.16c-0.273,0.043-0.471,0.064-0.592,0.064c-0.185,0-0.338-0.019-0.461-0.056
			c-0.185-0.062-0.277-0.129-0.277-0.202c0-0.111,0.145-0.173,0.434-0.185c0.557-0.087,1.099-0.2,1.625-0.339
			c0.155-0.035,0.24-0.053,0.255-0.053C541.65,62.532,541.826,62.563,542.09,62.623z M541.125,60.502
			c0.177,0.09,0.265,0.189,0.265,0.297c0,0.072-0.013,0.148-0.04,0.229c-0.035,0.162-0.053,0.297-0.053,0.405l-0.218,4.138h-0.637
			l0.015-4.415c-0.009-0.125-0.052-0.259-0.13-0.401c-0.061-0.071-0.091-0.125-0.091-0.16c0-0.161,0.084-0.241,0.252-0.241
			C540.657,60.354,540.869,60.404,541.125,60.502z M544.649,59.196c0.199,0.114,0.299,0.221,0.299,0.318
			c-0.021,0.108-0.048,0.207-0.08,0.297c-0.075,0.216-0.154,0.566-0.239,1.053c-0.33,1.386-0.658,2.527-0.987,3.427
			c-0.297,0.828-0.643,1.512-1.035,2.052c-0.414,0.594-0.823,1.034-1.226,1.322c-0.265,0.18-0.451,0.27-0.557,0.27
			c-0.062,0-0.092-0.018-0.092-0.054c0.643-0.755,1.096-1.372,1.36-1.851c0.344-0.497,0.688-1.215,1.033-2.154
			c0.264-0.755,0.482-1.593,0.654-2.514c0.149-0.736,0.224-1.316,0.224-1.74c0-0.105-0.004-0.19-0.012-0.256
			c-0.033-0.113-0.049-0.19-0.049-0.231c0.033-0.105,0.091-0.158,0.174-0.158C544.223,58.976,544.401,59.049,544.649,59.196z
			 M545.878,61.762c0.287,0.155,0.43,0.293,0.43,0.411c0,0.069-0.044,0.173-0.131,0.312c-0.11,0.207-0.203,0.599-0.28,1.175
			c-0.153,1.336-0.291,2.245-0.411,2.729c-0.187,0.714-0.427,1.197-0.723,1.451c-0.187,0.161-0.334,0.241-0.444,0.241l-0.059-1.142
			c0.101,0,0.188-0.097,0.263-0.29c0.188-0.387,0.357-1.104,0.508-2.148c0.113-0.813,0.169-1.509,0.169-2.089
			c0-0.18-0.132-0.27-0.397-0.27c-0.133,0-0.339,0.035-0.618,0.104c-0.317,0.084-0.634,0.194-0.951,0.333
			c-0.083,0.028-0.143,0.042-0.181,0.042c-0.127,0-0.268-0.052-0.422-0.153c-0.154-0.093-0.231-0.168-0.231-0.224
			c0.027-0.046,0.091-0.069,0.192-0.069c0.289-0.012,0.704-0.084,1.246-0.217c0.592-0.12,1.047-0.247,1.365-0.379
			c0.072-0.024,0.119-0.036,0.141-0.036C545.403,61.543,545.582,61.617,545.878,61.762z M544.26,66.94l0.059,1.142
			c-0.106,0-0.208-0.098-0.305-0.295c-0.184-0.313-0.441-0.653-0.771-1.023c0-0.04,0.014-0.06,0.042-0.06
			C543.784,66.861,544.109,66.94,544.26,66.94z M546.803,62.028c0,0,0.059,0.022,0.177,0.067c0.257,0.089,0.386,0.197,0.386,0.324
			c0,0.188,0.006,0.385,0.019,0.59c0.081,1.252,0.121,2.115,0.121,2.59c0,0.124-0.019,0.223-0.056,0.295
			c-0.038,0.081-0.083,0.121-0.134,0.121c-0.06,0-0.12-0.049-0.18-0.146c-0.089-0.126-0.138-0.26-0.146-0.401l-0.111-1.172
			c-0.043-0.61-0.089-1.037-0.138-1.281c-0.031-0.253-0.111-0.484-0.24-0.696c-0.049-0.057-0.074-0.098-0.074-0.122
			c0-0.112,0.048-0.169,0.144-0.169C546.726,62.028,546.803,62.028,546.803,62.028z M549.113,61.616c0,0,0.166,0.079,0.496,0.237
			c0.15,0.09,0.226,0.188,0.226,0.298c0,0.166-0.055,0.331-0.166,0.497c-0.123,0.248-0.233,0.594-0.331,1.035l-0.294,1.408
			c-0.06,0.123-0.16,0.185-0.3,0.185c-0.2,0-0.3-0.043-0.3-0.129c0-0.064,0.011-0.192,0.033-0.386
			c0.086-0.514,0.151-0.964,0.195-1.35c0.043-0.417,0.065-0.755,0.065-1.012c0-0.074-0.046-0.11-0.139-0.11
			c-0.128,0-0.292,0.032-0.493,0.097c-0.409,0.116-0.677,0.174-0.806,0.174c-0.098,0-0.196-0.045-0.294-0.133
			c-0.118-0.069-0.176-0.118-0.176-0.147c0-0.06,0.049-0.089,0.147-0.089c0.366-0.033,0.676-0.088,0.931-0.165
			c0.263-0.065,0.519-0.169,0.765-0.312c0.102-0.066,0.178-0.099,0.229-0.099C549.043,61.616,549.113,61.616,549.113,61.616z
			 M548.638,64.889c0,0,0.113,0.054,0.338,0.163c0.177,0.118,0.265,0.218,0.265,0.296c0,0.029-0.021,0.043-0.064,0.043
			c-0.172,0-0.329,0.01-0.472,0.029l-0.664,0.063c-0.122,0.015-0.214,0.021-0.278,0.021c-0.208,0-0.351-0.038-0.426-0.113
			c-0.076-0.076-0.114-0.147-0.114-0.214c0-0.095,0.06-0.143,0.18-0.143c0.282-0.02,0.545-0.057,0.789-0.11
			c0.135-0.024,0.225-0.036,0.27-0.036C548.579,64.889,548.638,64.889,548.638,64.889z"/>
		<path fill="#B35197" d="M559.247,59.688c0.322,0.243,0.482,0.435,0.482,0.572c0,0.053-0.041,0.127-0.122,0.224
			c-0.109,0.158-0.245,0.352-0.408,0.579c-0.313,0.465-0.774,1.07-1.385,1.816c-0.761,0.843-1.555,1.514-2.384,2.014
			c-0.869,0.519-1.46,0.777-1.772,0.777c-0.068,0-0.102-0.02-0.102-0.06c0-0.026,0.054-0.069,0.161-0.131
			c0.81-0.445,1.735-1.171,2.775-2.176c0.795-0.733,1.437-1.498,1.926-2.293c0.214-0.314,0.321-0.694,0.321-1.141
			c0-0.202,0.062-0.304,0.186-0.304C558.991,59.567,559.099,59.607,559.247,59.688z M559.437,61.486c0.134,0,0.29,0.04,0.469,0.12
			c0.134,0.089,0.201,0.183,0.201,0.28c0,0.071-0.095,0.111-0.286,0.12c-1.121,0.09-2.499,0.331-4.135,0.724
			c-0.348,0.099-0.566,0.147-0.656,0.147c-0.125,0-0.32-0.058-0.586-0.173c-0.196-0.116-0.293-0.218-0.293-0.307
			c0-0.054,0.083-0.09,0.25-0.107c0.864-0.099,2.266-0.321,4.206-0.67C559.082,61.531,559.359,61.486,559.437,61.486z
			 M559.136,65.128c0.057,0,0.084,0.034,0.084,0.102c0,0.031-0.046,0.069-0.139,0.113c-0.38,0.202-0.964,0.479-1.753,0.832
			c-0.426,0.195-0.932,0.444-1.516,0.746c-0.074,0.058-0.139,0.085-0.194,0.085c-0.141,0-0.317-0.085-0.529-0.256
			c-0.167-0.152-0.25-0.272-0.25-0.361c0-0.025,0.035-0.041,0.104-0.047c0.19-0.013,0.375-0.047,0.557-0.104
			c0.716-0.182,1.764-0.505,3.145-0.969C558.92,65.175,559.084,65.128,559.136,65.128z M558.454,59.996
			c0.15,0.065,0.226,0.146,0.226,0.244c0,0.059-0.056,0.104-0.167,0.137c-0.129,0.058-0.417,0.132-0.864,0.223
			c-0.676,0.124-1.116,0.186-1.322,0.186c-0.335,0-0.568-0.037-0.699-0.112c-0.131-0.092-0.196-0.172-0.196-0.238
			c0-0.049,0.083-0.077,0.25-0.085c0.391-0.049,0.821-0.13,1.29-0.244c0.326-0.073,0.59-0.15,0.792-0.231
			c0.071-0.032,0.119-0.049,0.143-0.049C558.045,59.825,558.229,59.882,558.454,59.996z M557.679,64.819
			c0.138,0.072,0.219,0.17,0.244,0.291c0.024,0.831,0.036,1.55,0.036,2.156c0,0.632-0.085,1.071-0.255,1.32
			c-0.142,0.188-0.275,0.283-0.403,0.283c-0.054,0-0.115-0.052-0.182-0.155c-0.296-0.404-0.565-0.719-0.808-0.942
			c-0.047-0.035-0.071-0.064-0.071-0.091c0-0.028,0.025-0.042,0.076-0.042c0.066,0,0.172,0.03,0.316,0.092
			c0.193,0.048,0.32,0.072,0.38,0.072c0.065,0,0.117-0.032,0.156-0.097c0.059-0.097,0.104-0.258,0.137-0.483
			c0.045-0.246,0.068-0.585,0.068-1.015c0-0.451-0.033-0.798-0.099-1.04c-0.037-0.154-0.096-0.259-0.176-0.313
			c-0.044-0.022-0.066-0.044-0.066-0.066c0-0.102,0.057-0.152,0.17-0.152C557.285,64.636,557.443,64.697,557.679,64.819z
			 M558.396,63.194c0,0,0.159,0.085,0.478,0.255c0.253,0.146,0.38,0.284,0.38,0.414c0,0.045-0.062,0.099-0.185,0.161
			c-0.277,0.134-0.527,0.295-0.75,0.482l-0.45,0.336c-0.162,0.125-0.285,0.188-0.37,0.188c-0.067,0-0.1-0.018-0.1-0.054
			c0-0.018,0.021-0.058,0.064-0.121c0.221-0.323,0.402-0.619,0.545-0.889c0.036-0.071,0.053-0.116,0.053-0.135
			c0-0.071-0.041-0.107-0.123-0.107c-0.027,0-0.086,0.014-0.176,0.039c-0.167,0.052-0.409,0.142-0.725,0.271
			c-0.072,0.032-0.117,0.048-0.135,0.048c-0.065,0-0.179-0.04-0.341-0.12c-0.163-0.097-0.244-0.173-0.244-0.229
			c0-0.064,0.069-0.097,0.208-0.097c0.342-0.026,0.637-0.077,0.885-0.15c0.237-0.061,0.471-0.138,0.703-0.231
			c0.077-0.041,0.126-0.061,0.149-0.061C558.351,63.194,558.396,63.194,558.396,63.194z M557.433,58.325
			c0.162,0.082,0.243,0.173,0.243,0.271c0,0.066-0.012,0.137-0.037,0.211c-0.032,0.148-0.048,0.272-0.048,0.371l-0.061,3.046h-0.584
			l-0.125-3.3c-0.008-0.114-0.048-0.237-0.12-0.368c-0.056-0.065-0.083-0.114-0.083-0.147c0-0.146,0.077-0.221,0.231-0.221
			C557.003,58.188,557.198,58.234,557.433,58.325z M562.473,62.503c0.166,0.142,0.249,0.278,0.249,0.411
			c0,0.061-0.029,0.156-0.088,0.289c-0.071,0.277-0.129,0.543-0.176,0.796c-0.094,0.808-0.283,1.459-0.564,1.953
			c-0.306,0.603-0.741,1.049-1.305,1.338c-0.47,0.265-0.976,0.397-1.516,0.397c-0.14,0-0.21-0.017-0.21-0.05
			c0-0.061,0.089-0.109,0.267-0.146c0.622-0.219,1.124-0.522,1.505-0.911c0.47-0.474,0.806-1.026,1.009-1.658
			c0.152-0.521,0.229-1.172,0.229-1.949c0-0.143-0.016-0.272-0.048-0.388c-0.048-0.099-0.072-0.175-0.072-0.229
			c0-0.089,0.061-0.134,0.183-0.134C562.093,62.224,562.272,62.317,562.473,62.503z M562.094,58.471
			c0.327,0.215,0.491,0.4,0.491,0.559c0,0.069-0.043,0.15-0.13,0.242c-0.077,0.139-0.158,0.313-0.245,0.521
			c-0.392,0.947-0.784,1.733-1.175,2.357c-0.316,0.509-0.675,0.947-1.078,1.317c-0.272,0.255-0.452,0.382-0.539,0.382
			c-0.057,0-0.085-0.015-0.085-0.043c0-0.042,0.033-0.096,0.098-0.16c0.346-0.472,0.691-1.04,1.037-1.705
			c0.313-0.6,0.6-1.286,0.859-2.058c0.162-0.472,0.243-0.911,0.243-1.319c0-0.152,0.051-0.229,0.152-0.229
			C561.812,58.335,561.936,58.381,562.094,58.471z M561.146,64.502c0.691,1.047,1.269,1.741,1.732,2.083
			c0.529,0.39,1.214,0.755,2.057,1.098c0.227,0.083,0.34,0.166,0.34,0.25c0,0.047-0.092,0.09-0.275,0.13
			c-0.281,0.078-0.729,0.117-1.344,0.117c-0.371,0-0.651-0.097-0.841-0.29c-0.402-0.378-1.038-1.335-1.905-2.873
			c-0.212-0.358-0.435-0.603-0.667-0.731c-0.106-0.056-0.159-0.11-0.159-0.166c0-0.115,0.089-0.172,0.269-0.172
			C560.622,63.948,560.887,64.132,561.146,64.502z M564.08,61.515c0.206,0.114,0.309,0.204,0.309,0.27
			c0,0.082-0.07,0.135-0.21,0.159c-0.58,0.06-1.335,0.216-2.265,0.468c-0.462,0.12-0.709,0.18-0.742,0.18
			c-0.123,0-0.257-0.017-0.403-0.049c-0.245-0.058-0.367-0.131-0.367-0.221c0-0.042,0.04-0.067,0.119-0.078
			c0.609-0.113,1.439-0.361,2.492-0.744c0.284-0.104,0.446-0.155,0.486-0.155C563.565,61.344,563.758,61.401,564.08,61.515z"/>
		<path fill="#B35197" d="M571.267,59.813c0.085,0,0.177,0.111,0.273,0.336c0.064,0.202,0.096,0.384,0.096,0.544
			c0,0.191-0.067,0.453-0.202,0.786c-0.147,0.345-0.281,0.588-0.403,0.729c-0.098,0.077-0.184,0.115-0.257,0.115
			c-0.1,0-0.198-0.057-0.297-0.172c-0.055-0.094-0.083-0.203-0.083-0.328c0-0.137,0.031-0.248,0.093-0.335
			c0.173-0.248,0.389-0.751,0.649-1.508C571.162,59.869,571.205,59.813,571.267,59.813z M578.675,67.526
			c0.312,0.171,0.468,0.325,0.468,0.464c0,0.122-0.215,0.183-0.646,0.183c-0.523-0.015-1.087-0.022-1.692-0.022
			c-0.632,0-1.458,0.036-2.478,0.109c-0.731,0.037-1.511,0.142-2.342,0.315c-0.235,0.055-0.379,0.083-0.433,0.083
			c-0.14,0-0.349-0.062-0.629-0.183c-0.296-0.13-0.444-0.235-0.444-0.316c0-0.098,0.096-0.154,0.288-0.171
			c0.928-0.009,1.607-0.052,2.04-0.131c0.819-0.097,1.72-0.171,2.702-0.223c0.927-0.079,1.639-0.167,2.134-0.263
			c0.207-0.035,0.337-0.053,0.392-0.053C578.092,67.319,578.306,67.388,578.675,67.526z M578.203,59.501
			c0,0,0.158,0.134,0.474,0.399c0.369,0.309,0.553,0.532,0.553,0.671c0,0.206-0.14,0.324-0.419,0.355
			c-0.414,0.082-0.91,0.252-1.489,0.51c-0.047,0-0.07-0.023-0.07-0.07c0.332-0.659,0.498-1.051,0.498-1.175
			c0-0.066-0.077-0.101-0.229-0.101c-1.265,0.024-3.036,0.223-5.314,0.595c-0.185,0.023-0.294,0.035-0.327,0.035
			c-0.244,0-0.423-0.053-0.537-0.158c-0.148-0.115-0.223-0.203-0.223-0.266c0-0.062,0.049-0.097,0.148-0.105h0.362
			c1.666-0.043,3.622-0.244,5.868-0.604c0.269-0.058,0.446-0.087,0.532-0.087C578.146,59.501,578.203,59.501,578.203,59.501z
			 M574.035,62.142c0,0,0.109,0.109,0.328,0.327c0.12,0.175,0.18,0.301,0.18,0.377c0,0.06-0.078,0.148-0.231,0.267l-1.081,0.816
			c-0.068,0.05-0.103,0.079-0.103,0.089c0,0.049,0.04,0.074,0.12,0.074c0.615-0.06,1.404-0.147,2.367-0.266
			c0.284-0.042,0.497-0.067,0.639-0.076c0.154,0,0.23,0.049,0.23,0.147c0,0.08-0.168,0.154-0.505,0.225l-2.526,0.583
			c-0.323,0.07-0.61,0.154-0.863,0.254c-0.21,0.08-0.33,0.12-0.358,0.12c-0.152,0-0.278-0.155-0.375-0.467
			c-0.033-0.107-0.049-0.183-0.049-0.226c0-0.114,0.111-0.212,0.333-0.295c0.311-0.125,0.57-0.301,0.777-0.528
			c0.222-0.229,0.399-0.44,0.533-0.638c0.148-0.207,0.244-0.425,0.289-0.652c0.011-0.099,0.071-0.147,0.18-0.147
			C573.997,62.137,574.035,62.142,574.035,62.142z M576.456,61.669c0.15,0.065,0.226,0.146,0.226,0.244
			c0,0.058-0.085,0.104-0.255,0.137c-0.197,0.058-0.635,0.132-1.315,0.223c-1.029,0.124-1.7,0.186-2.013,0.186
			c-0.335,0-0.569-0.038-0.699-0.113c-0.131-0.092-0.196-0.171-0.196-0.237c0-0.049,0.124-0.077,0.373-0.086
			c0.586-0.049,1.23-0.13,1.932-0.243c0.488-0.073,0.884-0.15,1.186-0.231c0.106-0.032,0.178-0.049,0.213-0.049
			C576.048,61.499,576.231,61.555,576.456,61.669z M576.604,65.804c0.15,0.065,0.225,0.146,0.225,0.244
			c0,0.058-0.086,0.104-0.259,0.137c-0.199,0.058-0.644,0.132-1.333,0.223c-1.043,0.124-1.724,0.186-2.042,0.186
			c-0.335,0-0.568-0.038-0.699-0.113c-0.13-0.092-0.196-0.171-0.196-0.237c0-0.049,0.126-0.077,0.378-0.086
			c0.594-0.049,1.247-0.13,1.958-0.243c0.495-0.073,0.896-0.15,1.202-0.231c0.108-0.032,0.18-0.049,0.216-0.049
			C576.196,65.633,576.379,65.69,576.604,65.804z M574.431,58.672c0.271,0.134,0.448,0.269,0.53,0.402
			c0.082,0.149,0.124,0.299,0.124,0.448c0,0.357-0.157,0.536-0.471,0.536c-0.141,0-0.328-0.208-0.559-0.622
			c-0.265-0.462-0.398-0.749-0.398-0.861c0-0.054,0.04-0.084,0.12-0.092C573.958,58.484,574.176,58.546,574.431,58.672z
			 M574.747,64.527c0.162,0.082,0.243,0.173,0.243,0.271c0,0.066-0.012,0.137-0.036,0.211c-0.032,0.148-0.048,0.272-0.048,0.371
			l-0.061,2.554h-0.584l-0.125-2.808c-0.008-0.114-0.048-0.237-0.119-0.368c-0.056-0.065-0.083-0.114-0.083-0.147
			c0-0.146,0.077-0.221,0.23-0.221S574.511,64.436,574.747,64.527z M575.812,63.058c0.25,0.093,0.493,0.2,0.73,0.322
			c0.312,0.185,0.518,0.354,0.618,0.508c0.075,0.133,0.112,0.281,0.112,0.445c0,0.115-0.029,0.246-0.086,0.39
			c-0.067,0.106-0.153,0.159-0.258,0.159c-0.041,0-0.101-0.035-0.181-0.105c-0.133-0.101-0.301-0.313-0.501-0.636
			c-0.267-0.402-0.468-0.675-0.601-0.816c-0.107-0.101-0.16-0.176-0.16-0.227c0-0.058,0.021-0.086,0.064-0.086
			C575.599,63.012,575.687,63.028,575.812,63.058z"/>
	</g>
</g>
</svg>
